<svg width="430" height="202" viewBox="0 0 430 202" fill="none" xmlns="http://www.w3.org/2000/svg">
<path d="M153.422 196.5L147.477 191.748L137.327 190.464C118.177 188.043 101.657 185.341 92.9272 183.201C86.8702 181.716 87.3091 182.741 87.2941 170.041V159.621H88.2981C88.8504 159.621 91.0642 159.945 93.2172 160.341C112.447 163.876 129.057 166.076 150.797 167.966C168.367 169.493 190.497 169.939 199.987 168.957C214.297 167.477 239.227 162.723 254.547 158.557C274.687 153.077 287.987 147.207 303.027 137.187C315.247 129.039 322.677 120.427 325.697 110.907C330.654 95.247 323.398 79.527 304.797 65.637C285.887 51.517 260.817 42.577 228.087 38.297C207.367 35.587 192.537 34.704 173.157 35.027C131.097 35.7289 100.507 40.68 71.2571 51.517C64.2951 54.097 51.1572 60.519 45.1672 64.267C35.9292 70.05 28.8372 76.537 23.5972 83.987C21.6232 86.795 20.2641 88.388 19.7251 88.53C19.0488 88.7079 17.9482 88.0037 13.8222 84.753C11.0322 82.555 6.78512 79.222 4.38212 77.346C1.98012 75.47 0.0081635 73.821 0.000163495 73.681C-0.0298365 73.1802 4.0752 67.45 6.9672 63.957C10.5872 59.584 17.7272 52.617 21.8072 49.467C28.3622 44.415 34.8172 40.547 45.9572 35.007C59.4972 28.266 64.5972 26.285 80.0972 21.727C84.7072 20.372 88.6682 19.057 88.8992 18.805C96.9182 10.05 98.6412 8.325 99.7692 7.915C101.271 7.373 112.809 5.41701 123.229 3.94001C143.479 1.06801 161.019 0.00300299 188.169 2.99289e-06C212.909 -0.00199701 227.849 0.998004 249.709 4.122C268.209 6.765 288.789 12.295 311.959 20.852C329.359 27.273 346.629 36.652 359.899 46.882C365.593 51.271 375.179 60.882 378.399 65.442C382.077 70.641 385.813 76.952 389.379 84.002C394.24 93.603 392.912 93.097 413.919 93.348L429.839 93.5377V113.138L395.849 113.494L394.181 114.647C392.03 116.135 390.321 118.142 388.852 120.904C378.935 139.554 360.552 157.504 338.782 169.804C324.342 177.957 311.332 183.424 296.382 187.614C272.162 194.407 251.412 197.904 221.432 200.224C213.87 200.81 207.782 200.96 185.832 201.101L159.352 201.27L153.407 196.518L153.422 196.5ZM169.222 124.85C148.892 121.928 136.932 110.58 142.292 99.2799C145.428 92.6719 153.772 87.6599 166.002 85.0499C169.231 84.3596 170.863 84.244 177.632 84.2268C185.925 84.2036 188.262 84.4596 194.172 86.0248C201.124 87.8648 206.902 90.9568 210.652 94.8508C216.661 101.084 216.729 108.201 210.84 114.351C206.312 119.08 199.33 122.442 190.13 124.317C185.449 125.272 174.17 125.557 169.22 124.845L169.222 124.85Z" fill="white"/>
</svg>
