<svg xmlns="http://www.w3.org/2000/svg" xmlns:xlink="http://www.w3.org/1999/xlink" width="597.6" height="611.853" viewBox="0 0 597.6 611.853">
  <defs>
    <clipPath id="clip-path">
      <rect id="Rectangle_98" data-name="Rectangle 98" width="597.6" height="611.853" transform="translate(917 2455)" fill="#fff" stroke="#707070" stroke-width="1"/>
    </clipPath>
  </defs>
  <g id="Mask_Group_11" data-name="Mask Group 11" transform="translate(-917 -2455)" opacity="0.565" clip-path="url(#clip-path)">
    <g id="Group_123" data-name="Group 123" transform="translate(1074.799 2427.806)">
      <g id="Group_42" data-name="Group 42" transform="translate(279.47 0)" opacity="0.5">
        <rect id="Rectangle_18" data-name="Rectangle 18" width="1.066" height="518.528" transform="translate(0)" fill="#efb042"/>
      </g>
      <g id="Group_43" data-name="Group 43" transform="translate(92.473 0)" opacity="0.5">
        <rect id="Rectangle_19" data-name="Rectangle 19" width="1.066" height="203.728" fill="#efb042"/>
      </g>
      <g id="Group_44" data-name="Group 44" transform="translate(466.999 0)" opacity="0.5">
        <rect id="Rectangle_20" data-name="Rectangle 20" width="1.066" height="518.528" transform="translate(0)" fill="#efb042"/>
      </g>
      <rect id="Rectangle_21" data-name="Rectangle 21" width="560.995" height="1.066" transform="translate(0 78.178)" fill="#efb042" opacity="0.5"/>
      <rect id="Rectangle_22" data-name="Rectangle 22" width="525.01" height="1.066" transform="translate(35.985 172.277)" fill="#efb042" opacity="0.5"/>
      <rect id="Rectangle_23" data-name="Rectangle 23" width="415.855" height="1.066" transform="translate(145.14 265.323)" fill="#efb042" opacity="0.5"/>
      <rect id="Rectangle_24" data-name="Rectangle 24" width="516.676" height="1.066" transform="translate(145.14 359.57)" fill="#efb042" opacity="0.5"/>
      <rect id="Rectangle_25" data-name="Rectangle 25" width="442.618" height="1.066" transform="translate(219.198 452.617)" fill="#efb042" opacity="0.5"/>
      <path id="Path_35" data-name="Path 35" d="M1054.625,104.339h-9.463V94.876h-2.825v9.463h-9.463v2.825h9.463v9.463h2.825v-9.463h9.463Z" transform="translate(-576.201 -27.04)" fill="#efb042"/>
      <path id="Path_36" data-name="Path 36" d="M950.677,311.952h-9.463v-9.463h-2.825v9.463h-9.463v2.825h9.463v9.463h2.825v-9.463h9.463Z" transform="translate(-659.728 139.786)" fill="#efb042"/>
      <path id="Path_37" data-name="Path 37" d="M1054.616,311.952h-9.463v-9.463h-2.825v9.463h-9.463v2.825h9.463v9.463h2.825v-9.463h9.463Z" transform="translate(-576.208 139.786)" fill="#efb042"/>
      <path id="Path_38" data-name="Path 38" d="M950.677,208.1h-9.463v-9.463h-2.825V208.1h-9.463v2.825h9.463v9.463h2.825v-9.463h9.463Z" transform="translate(-659.728 56.34)" fill="#efb042"/>
      <path id="Path_39" data-name="Path 39" d="M1054.625,208.1h-9.463v-9.463h-2.825V208.1h-9.463v2.825h9.463v9.463h2.825v-9.463h9.463Z" transform="translate(-576.201 56.34)" fill="#efb042"/>
      <path id="Path_40" data-name="Path 40" d="M950.677,156.513h-9.463V147.05h-2.825v9.463h-9.463v2.825h9.463V168.8h2.825v-9.463h9.463Z" transform="translate(-659.728 14.884)" fill="#efb042"/>
      <path id="Path_41" data-name="Path 41" d="M846.955,156.513h-9.463V147.05h-2.825v9.463H825.2v2.825h9.463V168.8h2.825v-9.463h9.463Z" transform="translate(-743.074 14.884)" fill="#efb042"/>
      <path id="Path_42" data-name="Path 42" d="M1054.625,156.513h-9.463V147.05h-2.825v9.463h-9.463v2.825h9.463V168.8h2.825v-9.463h9.463Z" transform="translate(-576.201 14.884)" fill="#efb042"/>
      <path id="Path_43" data-name="Path 43" d="M950.677,260.361h-9.463V250.9h-2.825v9.463h-9.463v2.825h9.463v9.463h2.825v-9.463h9.463Z" transform="translate(-659.728 98.33)" fill="#efb042"/>
      <path id="Path_44" data-name="Path 44" d="M1054.625,260.361h-9.463V250.9h-2.825v9.463h-9.463v2.825h9.463v9.463h2.825v-9.463h9.463Z" transform="translate(-576.201 98.33)" fill="#efb042"/>
      <path id="Path_45" data-name="Path 45" d="M950.677,104.339h-9.463V94.876h-2.825v9.463h-9.463v2.825h9.463v9.463h2.825v-9.463h9.463Z" transform="translate(-659.728 -27.04)" fill="#efb042"/>
      <path id="Path_46" data-name="Path 46" d="M846.955,104.339h-9.463V94.876h-2.825v9.463H825.2v2.825h9.463v9.463h2.825v-9.463h9.463Z" transform="translate(-743.074 -27.04)" fill="#efb042"/>
    </g>
  </g>
</svg>
